<?xml version="1.0" encoding="UTF-8" standalone="no"?>
<!-- Generator: Adobe Illustrator 14.0.0, SVG Export Plug-In . SVG Version: 6.00 Build 43363)  -->

<svg
   xmlns:dc="http://purl.org/dc/elements/1.1/"
   xmlns:cc="http://creativecommons.org/ns#"
   xmlns:rdf="http://www.w3.org/1999/02/22-rdf-syntax-ns#"
   xmlns:svg="http://www.w3.org/2000/svg"
   xmlns="http://www.w3.org/2000/svg"
   xmlns:sodipodi="http://sodipodi.sourceforge.net/DTD/sodipodi-0.dtd"
   xmlns:inkscape="http://www.inkscape.org/namespaces/inkscape"
   version="1.1"
   id="Ebene_1"
   x="0px"
   y="0px"
   width="328.333px"
   height="167.333px"
   viewBox="0 0 328.333 167.333"
   enable-background="new 0 0 328.333 167.333"
   xml:space="preserve"
   sodipodi:docname="logo-grey.svg"
   inkscape:version="0.92.0 r15299"><metadata
     id="metadata168"><rdf:RDF><cc:Work
         rdf:about=""><dc:format>image/svg+xml</dc:format><dc:type
           rdf:resource="http://purl.org/dc/dcmitype/StillImage" /><dc:title></dc:title></cc:Work></rdf:RDF></metadata><defs
     id="defs166" /><sodipodi:namedview
     pagecolor="#ffffff"
     bordercolor="#666666"
     borderopacity="1"
     objecttolerance="10"
     gridtolerance="10"
     guidetolerance="10"
     inkscape:pageopacity="0"
     inkscape:pageshadow="2"
     inkscape:window-width="1360"
     inkscape:window-height="752"
     id="namedview164"
     showgrid="false"
     inkscape:zoom="3.4243098"
     inkscape:cx="164.1665"
     inkscape:cy="83.666496"
     inkscape:window-x="3"
     inkscape:window-y="13"
     inkscape:window-maximized="0"
     inkscape:current-layer="Ebene_1" /><g
     id="g161"
     style="fill:#999999"><g
       id="g129"
       style="fill:#999999"><path
         d="M39.564,90.131c0,0.272-0.023,0.669-0.068,1.188c-0.049,0.521-0.072,0.918-0.072,1.191v1.063    c0,0.188,0.013,0.398,0.037,0.626c0,0.249,0,0.396,0,0.438c0,1.565-0.465,2.349-1.387,2.349c-0.325,0-0.812-0.25-1.458-0.747    c-0.649-0.5-1.146-0.76-1.494-0.782c-0.393,0.126-0.587,0.418-0.587,0.877c0,1.165,0.012,2.912,0.032,5.237    c0.025,2.325,0.035,4.072,0.035,5.238c0,0.395,0.075,0.987,0.228,1.77c0.149,0.778,0.224,1.357,0.224,1.734    c0,1.271-0.705,2.032-2.114,2.282c-0.302,0.062-1.598,0.094-3.888,0.094h-1.178c-0.74-0.354-1.11-1.022-1.11-2.003    c0-0.081,0.013-0.312,0.035-0.689c0.023-0.372,0.036-0.623,0.036-0.749c0-0.039-0.012-0.123-0.036-0.246v-0.254    c0-0.312,0.036-0.845,0.104-1.596c0.092-0.999,0.149-1.739,0.172-2.22c0.117-1.751,0.289-4.326,0.523-7.723    c-0.094-0.146-0.117-0.471-0.071-0.971c0.022-0.416-0.091-0.708-0.348-0.877c-0.438,0-1.01,0.286-1.714,0.86    c-0.708,0.571-1.266,0.857-1.682,0.857c-0.672,0-1.007-0.729-1.007-2.191c0-0.043,0.01-0.175,0.032-0.406c0-0.23,0-0.438,0-0.627    v-2.159c0-0.188,0-0.406,0-0.658c-0.022-0.251-0.032-0.406-0.032-0.468c0-1.336,0.217-2.14,0.659-2.413    c0.209-0.311,2.669-0.468,7.388-0.468c4.485,0,7.157,0.157,8.015,0.468C39.32,88.345,39.564,89.003,39.564,90.131z"
         id="path109"
         style="fill:#999999" /><path
         d="M59.381,92.67c0,1.567-0.552,2.351-1.649,2.351c-0.412,0-1.082-0.218-2.01-0.655c-0.926-0.438-1.68-0.656-2.251-0.656    c-0.893,0-1.396-0.01-1.51-0.032c-0.848,0.188-1.272,0.688-1.272,1.501c0,0.372,0.081,0.84,0.239,1.402    c0.183,0.126,0.368,0.188,0.55,0.188c0.341,0,0.98-0.183,1.916-0.547c0.935-0.363,1.607-0.549,2.017-0.549    c0.617,0,1.039,0.188,1.267,0.565c0.136,0.228,0.204,0.676,0.204,1.341c0,0.331-0.022,0.838-0.068,1.515    c-0.046,0.678-0.068,1.182-0.068,1.512v0.473c-0.045,0.311-0.185,0.642-0.416,0.995c-0.276,0.42-0.579,0.628-0.899,0.628    c-0.692,0-1.533-0.231-2.527-0.688c-0.621-0.293-1.13-0.533-1.52-0.718c-0.461,0-0.694,0.623-0.694,1.874    c0,0.788,0.175,1.33,0.522,1.623c0.231,0.185,0.62,0.279,1.177,0.279c0.713,0,1.789-0.279,3.217-0.842    c1.432-0.561,2.273-0.844,2.53-0.844c0.208,0,0.425,0.155,0.656,0.471c0.23,0.313,0.383,0.623,0.451,0.936    c0.067,0.314,0.104,0.606,0.104,0.877c0,0.168-0.026,0.531-0.071,1.094c-0.046,0.565-0.068,0.929-0.068,1.094    c0,2.085-0.298,3.556-0.903,4.41c-0.578,0.25-1.214,0.377-1.906,0.377h-0.279c-0.091,0-0.195,0-0.312,0c-1.085,0-3.247,0-6.484,0    c-1.805,0-2.962-0.062-3.468-0.188c-0.997-0.25-1.494-1.062-1.494-2.438c0-1.816,0.052-4.482,0.15-8.005l0.198-8.164    c0-0.438-0.163-1.104-0.483-2.001c-0.302-0.834-0.452-1.49-0.452-1.97c0-0.437,0.104-0.845,0.311-1.222    c0.692-0.52,1.838-0.82,3.435-0.904c0.784-0.043,1.085-0.063,0.901-0.063h3.435c0.137,0,0.425,0.017,0.864,0.048    c0.441,0.031,0.708,0.046,0.799,0.046c1.155,0,2.73,0.084,4.718,0.251c0.51,0.168,0.809,0.921,0.903,2.256    c0,0.124,0.033,0.345,0.104,0.66C59.333,91.43,59.381,92.001,59.381,92.67z"
         id="path111"
         style="fill:#999999" /><path
         d="M81.647,90.104c0,1.003-0.045,2.27-0.139,3.796c-0.09,1.63-0.149,2.897-0.172,3.796c0,0.98-0.022,2.729-0.068,5.238    l-0.139,5.738c0,2.071-0.371,3.243-1.111,3.513c-0.925,0.338-2.301,0.503-4.127,0.503c-0.809,0-1.503-0.063-2.081-0.188    c-0.325-0.061-0.601-0.474-0.832-1.229l-0.867-2.77c-0.348-1.134-1.007-3.099-1.978-5.893c-0.049-0.125-0.163-0.272-0.347-0.44    c-0.163,0.315-0.244,0.722-0.244,1.221c0,0.146,0.023,0.497,0.072,1.049c0.045,0.555,0.068,0.912,0.068,1.081v0.595    c-0.023,0.169-0.037,0.354-0.037,0.565c0,0.5,0.059,1.246,0.176,2.237c0.114,0.99,0.172,1.737,0.172,2.237    c0,0.188-0.097,0.425-0.295,0.704c-0.195,0.283-0.387,0.454-0.572,0.52c-0.578,0.208-1.444,0.312-2.601,0.312    c-0.672,0-1.214-0.074-1.63-0.22c-0.533,0.063-0.857-0.271-0.972-1.001c0.023,0.127,0.033-0.416,0.033-1.627    c0-1.815,0.095-4.526,0.28-8.135c0.184-3.607,0.276-6.318,0.276-8.133c0-0.377-0.144-0.956-0.433-1.737    c-0.289-0.783-0.435-1.384-0.435-1.8c0-0.314,0.071-0.606,0.208-0.88c0.578-0.415,1.319-0.727,2.222-0.936    c0.831-0.188,2.29-0.365,4.371-0.532c1.016,0,1.688,0.214,2.01,0.646c0.208,0.29,0.51,1.205,0.903,2.748    c0.139,0.665,0.37,1.665,0.694,2.997c0.322,1.23,0.773,2.562,1.352,4c0.117,0.062,0.23,0.092,0.347,0.092    c0.095,0,0.15-0.01,0.175-0.03c0.137-0.626,0.208-1.23,0.208-1.815c0-0.438-0.036-0.928-0.104-1.471    c-0.325-2.522-0.487-4.224-0.487-5.102c0-0.856,0.334-1.375,1.007-1.564c1.133-0.333,2.438-0.5,3.919-0.5    c0.045,0,0.14,0.021,0.279,0.063c0.529,0.167,0.819,0.481,0.868,0.943C81.638,88.941,81.647,89.416,81.647,90.104z"
         id="path113"
         style="fill:#999999" /><path
         d="M104.021,90.104c0,1.003-0.049,2.27-0.14,3.796c-0.091,1.63-0.149,2.897-0.172,3.796c0,0.98-0.022,2.729-0.071,5.238    l-0.137,5.738c0,2.071-0.371,3.243-1.11,3.513c-0.926,0.338-2.303,0.503-4.128,0.503c-0.811,0-1.503-0.063-2.081-0.188    c-0.325-0.061-0.604-0.474-0.832-1.229l-0.871-2.77c-0.347-1.134-1.003-3.099-1.977-5.893c-0.045-0.125-0.159-0.272-0.345-0.44    c-0.162,0.315-0.244,0.722-0.244,1.221c0,0.146,0.023,0.497,0.068,1.049c0.045,0.555,0.069,0.912,0.069,1.081v0.595    c-0.023,0.169-0.033,0.354-0.033,0.565c0,0.5,0.059,1.246,0.172,2.237c0.117,0.99,0.175,1.737,0.175,2.237    c0,0.188-0.1,0.425-0.294,0.704c-0.195,0.283-0.387,0.454-0.572,0.52c-0.578,0.208-1.445,0.312-2.601,0.312    c-0.673,0-1.215-0.074-1.631-0.22c-0.532,0.063-0.857-0.271-0.974-1.001c0.026,0.127,0.036-0.416,0.036-1.627    c0-1.815,0.09-4.526,0.276-8.135c0.185-3.607,0.279-6.318,0.279-8.133c0-0.377-0.146-0.956-0.435-1.737    c-0.289-0.783-0.432-1.384-0.432-1.8c0-0.314,0.068-0.606,0.208-0.88c0.578-0.415,1.318-0.727,2.22-0.936    c0.833-0.188,2.29-0.365,4.371-0.532c1.016,0,1.686,0.214,2.011,0.646c0.208,0.29,0.51,1.205,0.902,2.748    c0.137,0.665,0.37,1.665,0.692,2.997c0.325,1.23,0.776,2.562,1.354,4c0.117,0.062,0.23,0.092,0.348,0.092    c0.09,0,0.149-0.01,0.172-0.03c0.139-0.626,0.208-1.23,0.208-1.815c0-0.438-0.032-0.928-0.104-1.471    c-0.321-2.522-0.484-4.224-0.484-5.102c0-0.856,0.334-1.375,1.007-1.564c1.133-0.333,2.439-0.5,3.919-0.5    c0.045,0,0.136,0.021,0.276,0.063c0.532,0.167,0.821,0.481,0.867,0.943C104.008,88.941,104.021,89.416,104.021,90.104z"
         id="path115"
         style="fill:#999999" /><path
         d="M116.091,110.813c0,0.418-0.037,0.659-0.104,0.72c-0.672,0.896-1.919,1.281-3.744,1.156l-2.708-0.188    c-0.508-0.25-0.822-0.708-0.936-1.373v-1.688c0-0.104-0.014-0.197-0.036-0.282v-0.28c0-0.415,0.012-0.812,0.036-1.188l0.068-1.156    c0-0.373,0.046-3.676,0.14-9.907c0-0.436,0.013-1.208,0.036-2.312c0.022-0.374,0.045-0.592,0.068-0.656    c0-0.415-0.156-1.052-0.468-1.906c-0.313-0.854-0.468-1.501-0.468-1.938v-0.279c0.438-0.623,1.085-1.02,1.942-1.188l2.394-0.47    c0.646-0.123,1.166-0.187,1.558-0.187c0.971,0,1.571,0.26,1.806,0.779c0.253,0.585,0.379,1.993,0.379,4.221    c0,0.854-0.038,2.142-0.119,3.858c-0.082,1.722-0.121,3.007-0.121,3.861c0,1.165,0.045,2.899,0.136,5.202    C116.046,107.913,116.091,109.646,116.091,110.813z"
         id="path117"
         style="fill:#999999" /><path
         d="M136.013,104.854c0,1.144-0.233,2.267-0.694,3.37c-0.51,1.229-1.215,2.177-2.114,2.841    c-1.458,1.082-4.026,1.624-7.702,1.624c0.072,0,0.065-0.006-0.017-0.016c-0.081-0.01-0.214-0.026-0.399-0.048    c-0.555-0.04-1.377-0.093-2.461-0.153c-0.925-0.062-1.584-0.439-1.978-1.128c-0.072-0.727-0.163-1.506-0.28-2.34    c-0.136-0.936-0.208-1.705-0.208-2.31c0-1.063,0.234-2.058,0.695-2.997c0.321-0.25,0.718-0.373,1.179-0.373    c0.299,0,1.016,0.38,2.149,1.14c1.134,0.76,2.059,1.137,2.776,1.137c0.186,0,0.312-0.01,0.38-0.029    c0.347-0.188,0.52-0.543,0.52-1.063c0-0.626-0.624-1.419-1.87-2.376c-1.874-1.439-3.042-2.416-3.503-2.939    c-1.25-1.397-1.875-2.906-1.875-4.532c0-1.521,0.394-2.771,1.179-3.752c1.273-1.564,3.088-2.575,5.445-3.034    c0.65-0.123,1.065-0.187,1.25-0.187c0.113,0,0.374,0.011,0.779,0.031c0.406,0.022,0.653,0.032,0.748,0.032    c1.987,0,3.296,0.062,3.919,0.189c0.925,0.562,1.387,1.764,1.387,3.602c0,0.958-0.095,1.815-0.276,2.568    c-0.208,0.835-0.637,1.25-1.286,1.25c-0.529,0-1.306-0.301-2.322-0.902c-1.02-0.604-1.757-0.906-2.222-0.906    c-0.347,0-0.682,0.084-1.006,0.25c-0.091,0.166-0.136,0.355-0.136,0.563c0,0.562,0.682,1.384,2.045,2.464    c2.15,1.688,3.433,2.771,3.852,3.248C135.331,101.616,136.013,103.21,136.013,104.854z"
         id="path119"
         style="fill:#999999" /><path
         d="M245.039,104.415c0,2.666-0.728,4.768-2.182,6.306c-0.397,0.416-0.753,0.731-1.079,0.939    c-1.061,0.685-2.377,1.028-3.952,1.028c-0.067,0-0.243-0.022-0.521-0.063c-2.17-0.271-3.699-1.008-4.576-2.219    c-1.549-2.104-2.325-4.916-2.325-8.437c0-9.521,3.329-14.281,9.993-14.281c2.285,0,3.5,0.396,3.639,1.189    c0.113,0.648,0.173,1.606,0.173,2.88c0,0.312-0.033,1.408-0.104,3.286c-0.021,0.729-0.06,1.201-0.104,1.409    c-0.114,0.542-0.38,0.928-0.792,1.159c-0.072,0.02-0.197,0.028-0.384,0.028c-0.739,0-1.662-0.46-2.766-1.389    c-1.112-0.926-1.687-1.387-1.731-1.387c-0.348,0-0.624,0.155-0.832,0.468c-0.044,0.062-0.197,0.363-0.451,0.905    c-0.09,1.143-0.137,2.059-0.137,2.743c0,3.229,0.899,4.839,2.703,4.839c0.643,0,1.461-0.399,2.455-1.201    c0.992-0.799,1.604-1.202,1.834-1.202c0.482,0,0.841,0.553,1.074,1.656C245.02,103.282,245.039,103.729,245.039,104.415z"
         id="path121"
         style="fill:#999999" /><path
         d="M262.652,107.585c0,2.107-0.188,3.516-0.556,4.228c-0.185,0.376-0.739,0.603-1.666,0.688    c-0.394,0-0.912,0.023-1.558,0.063c-0.789,0.041-1.31,0.063-1.563,0.063c-1.295,0.041-2.705,0.063-4.229,0.063    c-1.183,0-1.991-0.085-2.431-0.249c-0.739-0.293-1.109-0.888-1.109-1.782c0-1.687,0.033-3.615,0.09-5.78l0.254-8.313    c0.026-0.793,0.04-1.634,0.04-2.53c0-0.085-0.036-0.334-0.105-0.75c-0.211-1.354-0.463-2.471-0.766-3.345    c-0.045-0.123-0.067-0.25-0.067-0.372c0-0.462,0.207-0.784,0.622-0.972c1.319-0.604,2.952-0.906,4.894-0.906    c0.692,0,1.307,0.042,1.839,0.125l0.519,0.343c0.137,0.229,0.268,0.48,0.384,0.749c0,1.416-0.116,3.537-0.348,6.365    c-0.23,2.832-0.348,4.952-0.348,6.368c0,1.228,0.027,1.926,0.071,2.091c0.14,0.5,0.533,0.75,1.186,0.75    c0.375,0,0.952-0.198,1.745-0.594c0.792-0.396,1.347-0.595,1.675-0.595c0.461,0,0.869,0.264,1.221,0.783    C262.581,105.474,262.652,106.643,262.652,107.585z"
         id="path123"
         style="fill:#999999" /><path
         d="M283.902,89.712c0,0.376-0.091,1.032-0.271,1.967c-0.058,0.585-0.087,1.813-0.087,3.683c0,0.666,0,1.666,0,2.997    c0,1.335,0,2.332,0,2.998c0,2.144-0.085,3.955-0.244,5.432c-0.324,2.998-1.629,4.777-3.919,5.34    c-1.547,0.372-3.095,0.561-4.643,0.561c-4.509,0-6.934-1.958-7.281-5.874c-0.137-1.565-0.208-3.363-0.208-5.406    c0-0.771,0.045-1.932,0.141-3.484c0.094-1.552,0.138-2.714,0.138-3.484c0-1.396-0.08-2.481-0.243-3.25    c-0.021-0.124-0.117-0.396-0.275-0.813c-0.14-0.335-0.211-0.604-0.211-0.811c0-0.878,0.997-1.41,2.983-1.599    c0.187-0.02,0.578-0.071,1.183-0.154c0.481-0.083,0.876-0.125,1.177-0.125c1.25,0,1.953,0.383,2.116,1.156    c0.023,0.065,0.036,0.564,0.036,1.5c0,0.941-0.042,2.357-0.123,4.254c-0.083,1.896-0.121,3.314-0.121,4.25    c0,0.669,0.024,1.565,0.071,2.691c0.091,0.251,0.137,0.689,0.137,1.313c0,0.854,0.371,1.284,1.114,1.284    c0.948,0,1.493-0.313,1.633-0.939c0.022-0.021,0.081-0.665,0.176-1.933c0.133-1.708,0.2-3.27,0.2-4.685    c0-1.625-0.097-3.131-0.278-4.523c-0.022-0.128-0.059-0.345-0.104-0.66c-0.254-0.808-0.384-1.275-0.384-1.403    c0-0.249,0.036-0.509,0.104-0.778c0.556-0.604,1.688-1.001,3.4-1.188c0.809-0.085,1.27-0.124,1.387-0.124    c0.835,0,1.441,0.124,1.822,0.374C283.708,88.526,283.902,89.007,283.902,89.712z"
         id="path125"
         style="fill:#999999" /><path
         d="M305.545,105.094c0,2.708-1.12,4.709-3.363,6.001c-1.852,1.062-4.372,1.594-7.564,1.594c-3.33,0-5.11-0.48-5.342-1.438    c-0.184-0.727-0.275-2.802-0.275-6.218c0-1.54,0.021-3.427,0.064-5.656l0.107-5.658c0-0.372-0.155-0.957-0.467-1.746    c-0.313-0.793-0.468-1.396-0.468-1.815c0-0.707,0.356-1.227,1.074-1.562l0.729-0.217c1.525-0.462,3.182-0.689,4.961-0.689    c3.12,0,5.399,0.282,6.833,0.845c2.193,0.831,3.296,2.438,3.296,4.813c0,0.938-0.2,1.779-0.588,2.528    c-0.234,0.44-0.649,0.949-1.254,1.533c-0.691,0.688-1.143,1.166-1.351,1.438C304.341,100.22,305.545,102.305,305.545,105.094z     M297.879,95.645c0-0.478-0.14-0.948-0.421-1.407c-0.443-0.227-0.722-0.341-0.839-0.341c-0.699,0-1.05,0.602-1.05,1.809    c0,0.836,0.342,1.251,1.017,1.251C297.449,96.956,297.879,96.518,297.879,95.645z M298.469,104.074    c0-0.416-0.071-0.722-0.214-0.905c-0.098-0.104-0.357-0.313-0.786-0.624c-0.051,0-0.204-0.017-0.468-0.049    c-0.262-0.029-0.442-0.046-0.535-0.046c-0.289,0-0.526,0.095-0.719,0.279c0,0.104-0.027,0.36-0.087,0.767    c-0.061,0.406-0.091,0.668-0.091,0.796c0,0.435,0.147,0.802,0.432,1.091c0.189,0.064,0.403,0.094,0.643,0.094    C297.859,105.477,298.469,105.009,298.469,104.074z"
         id="path127"
         style="fill:#999999" /></g><g
       id="g141"
       style="fill:#999999"><path
         d="M140.543,40.5c0,2.109-0.186,3.519-0.553,4.228c-0.185,0.377-0.741,0.606-1.666,0.69c-0.393,0-0.913,0.02-1.563,0.062    c-0.786,0.042-1.305,0.063-1.562,0.063c-1.292,0.04-2.705,0.063-4.231,0.063c-1.179,0-1.987-0.085-2.429-0.252    c-0.737-0.29-1.106-0.885-1.106-1.781c0-1.687,0.028-3.614,0.091-5.78l0.253-8.314c0.025-0.79,0.035-1.634,0.035-2.531    c0-0.083-0.032-0.333-0.104-0.75c-0.208-1.354-0.461-2.468-0.763-3.343c-0.046-0.125-0.068-0.25-0.068-0.375    c0-0.458,0.208-0.78,0.624-0.969c1.318-0.604,2.949-0.906,4.89-0.906c0.695,0,1.309,0.042,1.842,0.125l0.52,0.344    c0.136,0.228,0.263,0.477,0.379,0.747c0,1.416-0.113,3.538-0.344,6.368c-0.23,2.828-0.347,4.952-0.347,6.366    c0,1.228,0.023,1.924,0.071,2.09c0.14,0.499,0.533,0.75,1.186,0.75c0.37,0,0.951-0.198,1.744-0.594    c0.789-0.395,1.347-0.592,1.673-0.592c0.464,0,0.873,0.261,1.22,0.783C140.475,38.391,140.543,39.56,140.543,40.5z"
         id="path131"
         style="fill:#999999" /><path
         d="M162.627,44.103c0,0.48-0.324,0.824-0.971,1.032c-0.971,0.314-2.023,0.471-3.156,0.471c-1.205,0-2.176-0.216-2.913-0.646    c-0.188-0.521-0.315-1.189-0.383-2.003c-0.068-0.917-0.162-1.585-0.276-2.002c-0.324-0.208-0.73-0.311-1.215-0.311    c-0.162,0-0.682,0.061-1.561,0.186c-0.141,0.291-0.325,1.02-0.556,2.187c-0.117,0.562-0.222,1.123-0.312,1.685    c-0.094,0.104-0.266,0.198-0.52,0.281l-0.627,0.281c-0.971,0.229-1.941,0.344-2.912,0.344c-1.016,0-1.695-0.099-2.03-0.299    c-0.334-0.198-0.503-0.535-0.503-1.016c0.023-0.167,0.105-0.741,0.244-1.721c0.117-0.812,0.521-2.648,1.215-5.505l1.282-5.225    c0.533-2.234,0.799-3.944,0.799-5.133c0-0.333-0.124-0.829-0.364-1.485c-0.243-0.658-0.363-1.153-0.363-1.488    c0-0.5,0.172-0.896,0.52-1.188c0.045-0.042,0.266-0.156,0.659-0.344c1.594-0.772,3.617-1.252,6.069-1.44l2.185-0.156    c1.364,0,2.231,0.354,2.602,1.063c0.185,2.879,0.577,6.269,1.179,10.171l1.597,10.106    C162.523,43.301,162.627,44.02,162.627,44.103z M154.509,32.368c0-0.395-0.045-0.982-0.136-1.762    c-0.095-0.78-0.14-1.369-0.14-1.764c0-0.272,0.013-0.468,0.035-0.595l-0.346-0.187c-0.787,2.33-1.18,3.956-1.18,4.87    c0,0.584,0.253,0.875,0.763,0.875c0.299,0,0.601-0.104,0.9-0.312C154.477,33.138,154.509,32.765,154.509,32.368z"
         id="path133"
         style="fill:#999999" /><path
         d="M184.965,44.103c0,0.48-0.324,0.824-0.971,1.032c-0.971,0.314-2.022,0.471-3.156,0.471c-1.204,0-2.173-0.216-2.912-0.646    c-0.189-0.521-0.312-1.189-0.384-2.003c-0.071-0.917-0.162-1.585-0.279-2.002c-0.324-0.208-0.728-0.311-1.215-0.311    c-0.158,0-0.682,0.061-1.558,0.186c-0.141,0.291-0.325,1.02-0.556,2.187c-0.113,0.562-0.218,1.123-0.313,1.685    c-0.093,0.104-0.266,0.198-0.522,0.281l-0.623,0.281c-0.971,0.229-1.942,0.344-2.913,0.344c-1.018,0-1.693-0.099-2.03-0.299    c-0.334-0.198-0.502-0.535-0.502-1.016c0.024-0.167,0.104-0.741,0.242-1.721c0.116-0.812,0.522-2.648,1.216-5.505l1.282-5.225    c0.533-2.234,0.799-3.944,0.799-5.133c0-0.333-0.121-0.829-0.364-1.485c-0.243-0.658-0.366-1.153-0.366-1.488    c0-0.5,0.175-0.896,0.522-1.188c0.046-0.042,0.264-0.156,0.66-0.344c1.594-0.772,3.616-1.252,6.071-1.44l2.183-0.156    c1.363,0,2.233,0.354,2.604,1.063c0.182,2.879,0.578,6.269,1.177,10.171l1.596,10.106    C184.861,43.301,184.965,44.02,184.965,44.103z M176.847,32.368c0-0.395-0.046-0.982-0.136-1.762    c-0.095-0.78-0.14-1.369-0.14-1.764c0-0.272,0.01-0.468,0.035-0.595l-0.347-0.187c-0.79,2.33-1.179,3.956-1.179,4.87    c0,0.584,0.253,0.875,0.76,0.875c0.302,0,0.604-0.104,0.902-0.312C176.814,33.138,176.847,32.765,176.847,32.368z"
         id="path135"
         style="fill:#999999" /><path
         d="M219.893,25.586c0,1.567-0.549,2.35-1.649,2.35c-0.409,0-1.082-0.217-2.008-0.656c-0.928-0.436-1.678-0.656-2.25-0.656    c-0.893,0-1.398-0.01-1.51-0.031c-0.851,0.188-1.272,0.687-1.272,1.499c0,0.375,0.078,0.843,0.24,1.404    c0.182,0.125,0.363,0.188,0.545,0.188c0.345,0,0.981-0.182,1.916-0.546c0.936-0.364,1.611-0.546,2.02-0.546    c0.617,0,1.039,0.187,1.267,0.562c0.137,0.229,0.205,0.676,0.205,1.342c0,0.333-0.023,0.839-0.068,1.515    c-0.045,0.677-0.072,1.18-0.072,1.515v0.468c-0.045,0.311-0.181,0.644-0.415,0.999c-0.271,0.417-0.574,0.625-0.896,0.625    c-0.694,0-1.531-0.229-2.526-0.687c-0.623-0.292-1.129-0.53-1.522-0.718c-0.461,0-0.691,0.624-0.691,1.872    c0,0.792,0.175,1.332,0.52,1.624c0.233,0.188,0.623,0.28,1.175,0.28c0.719,0,1.79-0.28,3.222-0.843    c1.429-0.562,2.272-0.842,2.526-0.842c0.208,0,0.429,0.155,0.656,0.469c0.234,0.311,0.383,0.625,0.454,0.938    c0.068,0.312,0.104,0.604,0.104,0.875c0,0.167-0.025,0.532-0.07,1.096c-0.045,0.562-0.072,0.927-0.072,1.092    c0,2.084-0.298,3.556-0.898,4.41c-0.579,0.25-1.215,0.375-1.907,0.375h-0.279c-0.091,0-0.194,0-0.312,0c-1.088,0-3.247,0-6.488,0    c-1.802,0-2.958-0.062-3.469-0.187c-0.992-0.25-1.489-1.063-1.489-2.44c0-1.812,0.049-4.481,0.146-8.005l0.202-8.162    c0-0.438-0.163-1.104-0.487-2c-0.298-0.835-0.448-1.491-0.448-1.972c0-0.436,0.104-0.844,0.313-1.219    c0.69-0.521,1.838-0.823,3.432-0.908c0.785-0.041,1.088-0.062,0.899-0.062h3.436c0.14,0,0.429,0.015,0.866,0.047    c0.439,0.033,0.705,0.045,0.8,0.045c1.156,0,2.728,0.085,4.718,0.252c0.507,0.167,0.81,0.919,0.903,2.255    c0,0.127,0.032,0.346,0.104,0.66C219.848,24.344,219.893,24.919,219.893,25.586z"
         id="path137"
         style="fill:#999999" /><path
         d="M241.778,39.248c0,1.671-0.312,3.059-0.935,4.165c-0.834,1.462-2.081,2.193-3.747,2.193c-0.577,0-1.053-0.094-1.423-0.283    c-1.155-0.565-1.92-1.526-2.289-2.885c-0.186-0.792-0.475-1.984-0.867-3.572c-0.022-0.021-0.149-0.219-0.383-0.596    c-0.159-0.251-0.344-0.375-0.552-0.375c-0.325,0-0.533,0.281-0.624,0.843c-0.049,0.249-0.071,0.603-0.071,1.06    c0,0.375,0.032,0.932,0.104,1.671s0.104,1.296,0.104,1.669c0,0.521-0.032,0.927-0.104,1.219c-0.137,0.541-1.017,0.811-2.636,0.811    c-0.137,0-0.491,0.021-1.06,0.063c-0.565,0.042-0.929,0.062-1.091,0.062c-0.926,0-1.435-0.291-1.526-0.875    c-0.022-0.042-0.032-0.76-0.032-2.156c0-1.708,0.045-4.281,0.148-7.719c0.099-3.437,0.147-6.011,0.147-7.719    c0-0.311-0.131-0.822-0.394-1.531c-0.26-0.708-0.39-1.25-0.39-1.625c0-0.458,0.195-0.864,0.592-1.219    c0.574-0.52,1.359-0.907,2.354-1.156c0.254-0.062,1.156-0.208,2.705-0.436l0.383-0.064c0.273-0.043,0.539-0.083,0.793-0.125    c0.929-0.041,1.457-0.062,1.597-0.062c0.345,0,0.969,0.062,1.871,0.187c2.195,0.313,3.904,1.001,5.131,2.065    c1.338,1.167,2.01,2.698,2.01,4.596c0,1.708-0.497,3.241-1.483,4.597c-0.303,0.417-0.891,0.959-1.767,1.625    c-0.534,0.418-0.796,0.731-0.796,0.941c0,0.373,0.208,0.708,0.623,1c0.42,0.292,0.855,0.438,1.319,0.438    c0.094,0,0.235-0.026,0.432-0.078c0.197-0.052,0.345-0.078,0.435-0.078c0.509,0,0.89,0.459,1.144,1.379    C241.688,37.944,241.778,38.6,241.778,39.248z M234.674,29.279c0-1.208-0.617-1.811-1.844-1.811c-0.279,0-0.455,0.01-0.522,0.031    c-0.605,0.167-0.907,0.781-0.907,1.841v0.843c0,0.521,0.559,0.781,1.669,0.781c0.487,0,0.878-0.161,1.169-0.483    C234.531,30.158,234.674,29.756,234.674,29.279z"
         id="path139"
         style="fill:#999999" /></g><path
       d="M171.558,116.43c-0.218,0.257-0.439,0.511-0.669,0.76c0.003-0.003,0.003-0.003,0.009-0.003"
       id="path143"
       style="fill:#999999" /><g
       id="g157"
       style="fill:#999999"><g
         id="g149"
         style="fill:#999999"><g
           id="g147"
           style="fill:#999999"><path
             fill="#9C9E9F"
             d="M192.467,123.729c-0.241-0.613-0.585-1.482-0.902-2.143c-0.891,0.966-2.417,3.041-4.54,6.923      c-0.53,0.969-1.404,1.264-2.014,1.364c-1.188,1.36-2.683,2.674-3.832,3.663l-1.025,0.909c-0.403,0.396-0.906,0.766-1.437,1.163      c-0.577,0.422-1.919,1.415-2.071,1.879c-0.168,0.939-0.708,2.124-1.332,3.257c2.638,0.568,5.375,0.871,8.184,0.871      c1.968,0,3.896-0.153,5.787-0.438c0.148-0.127,0.293-0.247,0.432-0.361l0.342-0.285c1.058-1.064,1.229-1.399,2.354-3.582      l0.627-1.214c1.312-2.517,2.278-5.321,2.754-7.083C194.142,127.96,193.356,125.99,192.467,123.729z M176.116,115.001v-0.097      c0-2.086,0.621-4.063,1.072-5.515c0.126-0.402,0.289-0.916,0.366-1.25c-0.006-0.017-0.032-0.059-0.032-0.059      c-0.091-0.162-0.188-0.331-0.285-0.507c-0.198,0.331-0.396,0.662-0.592,0.99c-4.092,6.911-8.325,14.058-18.817,14.943      c-2.773,0.237-5.283-0.054-7.553-0.727c3.763,6.276,9.255,11.397,15.818,14.706c0.069-0.073,0.123-0.14,0.149-0.188l0.305-0.741      c0.292-0.76,0.623-1.626,1.76-2.574l0.926-0.659c0,0,0.017-0.01,0.022-0.014c0.03-0.067,0.075-0.176,0.137-0.337      c0.89-2.43,3.039-4.948,4.767-6.973c0,0,0.535-0.649,0.948-1.146c0.007-0.302,0.046-0.66,0.188-1.039      c0.526-1.423,0.825-4.357,0.825-8.117C176.12,115.473,176.12,115.238,176.116,115.001z"
             id="path145"
             style="fill:#999999" /></g></g><g
         id="g155"
         style="fill:#999999"><path
           fill="#9C9E9F"
           d="M169.333,93.653c-2.338,0.046-4.43,1.932-5.118,2.552c-1.305,1.176-2.608,1.446-3.961,0.878     c-0.688,0.702-2.156,1.891-4.656,0.838c-2.406-1.017-4.692-5.908-6.208-9.914c-0.16-0.278-0.507-0.882-0.926-1.606     c-2.361,5.006-3.682,10.598-3.682,16.501c0,3.712,0.532,7.301,1.51,10.697l0.948,1.889c2.81,2.26,5.507,1.825,10.233,1.426     c8.056-0.678,11.09-5.8,14.934-12.284c0.837-1.419,1.656-2.876,2.52-4.328C173.581,96.667,170.515,93.631,169.333,93.653z      M162.018,78.572l0.606-0.583c0,0,1.974-1.317,3.504-2.335c-0.93-0.047-2.068-0.161-3.186-0.719l-0.395-0.194     c-1.125-0.545-2.2-1.164-3.061-2.214c-2.103,1.667-4.032,3.548-5.75,5.611c1.02,1.819,2.374,4.168,3.789,6.587     C159.494,82.03,162.018,78.572,162.018,78.572z M189.892,64.84c-0.782,1.176-0.854,1.77-0.971,2.783l-0.153,1.169     c-0.113,0.664-0.158,1.39-0.158,2.037c0,0.819,0.073,1.501,0.175,1.799c1.542,1.79,5.098,7.753,7.669,13.41     c12.69-1.08,21.9,6.76,25.521,19.599C223.926,83.168,206.208,68.077,189.892,64.84z"
           id="path151"
           style="fill:#999999" /><path
           fill="#9C9E9F"
           d="M198.486,91.124c0.24,0.744,0.474,1.711,0.747,2.824c0.546,2.213,1.222,4.938,2.162,6.917     c0.082,0.071,0.188,0.172,0.188,0.172c0.611,0.536,1.631,1.439,1.93,2.995c0.27,1.418,1.123,3.405,2.026,5.51     c1.351,3.146,2.884,6.716,3.578,10.612l0.059,0.325c0.175,0.941,0.373,2.031,0.373,3.26c0,0.634-0.055,1.299-0.188,1.997     c-0.202,1.036-0.919,1.595-1.395,1.92c-0.632,1.396-2.031,3.646-4.107,6.942c-0.373,0.593-0.795,1.269-1.225,1.954     c8.827-5.029,15.483-13.424,18.215-23.438C220.851,113.114,215.662,90.501,198.486,91.124z"
           id="path153"
           style="fill:#999999" /></g></g><path
       enable-background="new    "
       d="M159.822,94.524c-1.276,0.262-1.241,2.052-3.247,1.208c-2.004-0.845-4.965-8.738-4.965-8.738   s-2.737-4.702-3.598-6.249c-0.857-1.546-1.643,0.547-2.828-1.718c-1.182-2.265,0.672-4.624,1.107-4.925   c0.435-0.299-0.328-0.042,0.737,0c1.068,0.043,3.896-5.561,3.627-7.973c-0.052-0.436-0.283-0.717-0.373-1.479   c-0.202-1.72-0.273-3.453,0.185-5.533c0.487-2.215,3.491-11.759,6.948-10.704c4.43,1.355,1.345,11.546-1.646,16.154   c-0.893,1.376-1.802,1.319-2.904,2.665c-0.406,0.494-1.106,1.969-1.601,3.446c-0.354,1.067-1.861,3.68-1.53,4.9   c0.332,1.222,7.625,13.532,7.625,13.532l6.643-9.104l5.168-3.443c0,0,0.734-1.291-0.064-2.522   c-0.798-1.229-3.196-0.308-5.042-1.229c-1.846-0.924-3.567-1.416-3.938-5.72c-0.367-4.306,4.139-6.196,5.604-6.614   c1.006-0.288,0.661-0.336,1.627-0.52c1.063-0.203,1.649,0.609,1.935,1.214c0.417,0.89,2.787,0.313,3.216,0.622   c0.432,0.307-0.046,1.384,0.689,1.83c0.421,0.259,0.486,0.538,1.227,0.662c0.736,0.123,1.313,0.876,1.149,2.011   c-0.078,0.563-1.335,0.771-0.701,2.532c0.244,0.677,1.392,0.786,2.028-0.37c1.754-3.183,5.888-6.733,7.428-9.409   c1.539-2.676,5.688-12.253,6.501-14.76c0.818-2.506,1.923-3.798,1.955-5.612c0.02-1.064-0.193-2.514-0.345-3.27   c-0.11-0.53-0.072-0.276-0.11-0.713c-0.075-0.901,0.059-2.26,0.347-2.305c0.877-0.138,0.399,2.537,1.199,2.628   c0.799,0.092,1.025-1.309,1.533-2.239c0.503-0.93,1.217-2.044,2.447-1.982c0.233,0.011,0.396,0.399,0.677,0.396   c0.389-0.006,0.642,0.086,1.038,0.64c0.195,0.271,0.938-0.075,0.949,0.695c0.011,1.399-0.234,1.213-1.339,2.445   c-1.107,1.229-4.004,5.938-4.183,9.363c-0.162,3.127-5.37,16.763-6.888,18.941c-1.613,2.322-1.366,3.398-1.658,5.136   c-0.293,1.737-0.325,4.843,0.46,5.675c1.54,1.632,7.148,11.208,9.313,17.726c0.688,2.068,1.521,7.014,3.134,10.29   c0.337,0.686,1.614,1.184,1.844,2.397c0.738,3.873,4.459,9.71,5.603,16.097c0.256,1.427,0.59,2.947,0.246,4.702   c-0.059,0.312-0.944,0.649-1.052,0.974c-0.709,2.166-7.65,12.142-8.297,14.248c-0.646,2.108,0.926,4.229,1.938,4.875   c1.014,0.646,3.026,2.186,3.475,3.491c0.448,1.305-0.493,1.228-0.493,1.228s-2.874,0.017-6.715-1.12   c-3.845-1.137-4.846,0.259-5.586-1.092c-0.546-1-0.866-2.669-0.091-4.146c0.271-0.518,1.175-1.117,1.568-1.515   c1.536-1.538,1.711-2.109,3.412-5.38c2.254-4.329,3.689-9.651,3.287-10.096c-0.708-0.785,0.077,0.12-1.599-0.247   c-1.678-0.371-2.812-7.631-4.854-7.892c-2.047-0.263-5.895,6.585-7.079,8.752c-0.166,0.299-0.972,0.039-1.215,0.356   c-1.529,1.979-4.374,4.173-5.237,5.021c-1.001,0.983-3.845,2.462-4.184,4.323c-0.337,1.855-3.194,5.903-3.194,5.903   s-1.449,3.548-2.078,4.166c-0.631,0.613-1.659,1.828-3.318,1.152c-1.664-0.678-0.956-0.845-1.34-2.169   c-0.385-1.32,0.4-2.997,1.076-4.382c0.678-1.382,2.414-2.197,2.983-3.411c0.568-1.216,0.508-1.725,1.43-2.491   c0.923-0.77,1.234-0.487,1.799-2.03c1.013-2.77,4.397-6.149,5.842-8.055c0.179-0.241-0.071-0.748,0.055-1.089   c0.896-2.403,1-6.865,0.975-9.677c-0.029-3.211,1.844-6.41,1.429-7.439c-0.389-0.968-1.222-1.416-2.211-6.149   c-0.99-4.739-5.335-10.191-8.439-10.132c-3.108,0.058-5.587,2.179-6.684,3.165C161.139,95.816,161.095,94.254,159.822,94.524z"
       id="path159"
       style="fill:#999999" /></g></svg>